<svg version="1.1" xmlns="http://www.w3.org/2000/svg" viewBox="0 0 348.99505126374595 386.495754756406" width="348.99505126374595" height="386.495754756406" filter="invert(93%) hue-rotate(180deg)" class="excalidraw-svg"><!-- svg-source:excalidraw --><metadata></metadata><defs><style class="style-fonts">
      </style></defs><g stroke-linecap="round" transform="translate(10 60.495754756405944) rotate(0 163.5 158)"><path d="M185.76 0.79 C201.43 0.41, 218.86 8.55, 233.45 15.2 C248.05 21.85, 261.4 30.35, 273.33 40.69 C285.26 51.03, 296.85 63.81, 305.05 77.24 C313.25 90.68, 318.89 106.04, 322.55 121.28 C326.21 136.53, 327.98 153.08, 327.02 168.71 C326.05 184.35, 322.61 200.75, 316.76 215.07 C310.91 229.39, 302.02 242.72, 291.92 254.66 C281.83 266.6, 269.29 277.74, 256.17 286.71 C243.04 295.67, 228.19 303.71, 213.17 308.47 C198.16 313.23, 181.96 315.1, 166.08 315.26 C150.19 315.41, 133.43 313.6, 117.86 309.4 C102.3 305.2, 86.3 298.63, 72.7 290.06 C59.1 281.49, 46.52 270.14, 36.26 257.99 C25.99 245.83, 16.96 231.6, 11.1 217.13 C5.24 202.67, 2.46 186.53, 1.11 171.18 C-0.24 155.82, -0.3 140.01, 3.02 124.99 C6.33 109.97, 13.1 94.74, 21.01 81.05 C28.93 67.37, 38.85 53.82, 50.52 42.88 C62.19 31.95, 76.44 22.15, 91.02 15.44 C105.61 8.73, 121.53 4.8, 138.03 2.63 C154.53 0.47, 180.77 1.78, 190.01 2.46 C199.24 3.14, 194.01 4.19, 193.45 6.71 M103.08 10.97 C116.23 3.2, 134.25 2.87, 150.17 1.5 C166.09 0.12, 182.83 -0.33, 198.58 2.73 C214.33 5.79, 230.54 12.06, 244.67 19.86 C258.81 27.65, 272.28 37.82, 283.39 49.49 C294.5 61.16, 304.36 75.68, 311.33 89.89 C318.3 104.11, 322.97 119.65, 325.19 134.79 C327.41 149.93, 327.07 165.35, 324.66 180.73 C322.25 196.12, 317.28 212.97, 310.72 227.07 C304.17 241.18, 296.04 254.15, 285.32 265.36 C274.6 276.57, 260.73 286.51, 246.41 294.32 C232.1 302.13, 215.15 308.49, 199.44 312.21 C183.74 315.93, 167.91 317.71, 152.18 316.65 C136.46 315.59, 120.28 311.75, 105.1 305.83 C89.91 299.91, 73.96 290.75, 61.08 281.13 C48.19 271.5, 36.88 260.47, 27.77 248.08 C18.66 235.69, 11.01 221.69, 6.42 206.81 C1.83 191.93, 0.24 174.58, 0.25 158.81 C0.26 143.04, 1.86 126.93, 6.48 112.2 C11.1 97.46, 18.64 83.37, 27.95 70.42 C37.26 57.46, 50 44.1, 62.34 34.46 C74.68 24.83, 95.02 15.79, 101.99 12.61 C108.95 9.42, 103.1 13.26, 104.1 15.36" stroke="#f08c00" stroke-width="0.5" fill="none"></path></g><g stroke-linecap="round" transform="translate(12 181.49575475640594) rotate(359.5379472785693 163.5 43)"><path d="M230.74 3.54 C248.09 4.89, 264.4 8.87, 277.54 12.38 C290.67 15.9, 301.62 20.35, 309.55 24.62 C317.49 28.9, 322.96 33.13, 325.14 38.03 C327.32 42.93, 326.94 49.25, 322.64 54.01 C318.34 58.77, 309.93 62.53, 299.34 66.61 C288.75 70.69, 274.2 75.6, 259.12 78.48 C244.03 81.37, 226.77 82.54, 208.83 83.91 C190.89 85.28, 170.25 86.84, 151.46 86.71 C132.67 86.58, 113.2 85.3, 96.09 83.12 C78.99 80.93, 62.06 77.19, 48.81 73.59 C35.56 70, 24.66 65.98, 16.59 61.56 C8.52 57.13, 2.27 51.75, 0.39 47.03 C-1.48 42.32, 0.7 38.06, 5.33 33.27 C9.97 28.48, 17.72 22.6, 28.21 18.31 C38.7 14.02, 53.09 10.37, 68.27 7.53 C83.45 4.69, 101.53 2.63, 119.28 1.28 C137.03 -0.07, 153.77 -1.21, 174.79 -0.57 C195.81 0.07, 231.82 3.65, 245.38 5.11 C258.94 6.58, 257.64 7.59, 256.12 8.22 M92.37 5.02 C107.35 2.72, 131.16 1.58, 149.78 1.2 C168.4 0.82, 186.19 1.9, 204.09 2.74 C221.98 3.57, 241.73 3.56, 257.14 6.22 C272.55 8.88, 285.8 14.67, 296.54 18.7 C307.28 22.73, 316.76 25.86, 321.58 30.38 C326.4 34.91, 327.09 40.94, 325.48 45.85 C323.86 50.75, 319.52 55.21, 311.9 59.8 C304.28 64.39, 292.89 69.7, 279.75 73.41 C266.62 77.11, 250.16 80.01, 233.09 82.04 C216.02 84.07, 195.72 85.08, 177.34 85.58 C158.96 86.09, 140.44 86.36, 122.8 85.08 C105.17 83.81, 87.06 81.04, 71.54 77.92 C56.01 74.81, 40.53 70.1, 29.67 66.37 C18.81 62.64, 11.42 59.8, 6.37 55.55 C1.32 51.31, -2.12 46.16, -0.62 40.91 C0.88 35.66, 7.44 28.85, 15.39 24.05 C23.33 19.25, 33.96 15.52, 47.07 12.12 C60.17 8.73, 85.86 4.9, 94.01 3.68 C102.17 2.46, 94.69 4.24, 95.97 4.81" stroke="#f08c00" stroke-width="0.5" fill="none"></path></g><g stroke-linecap="round" transform="translate(6 181.49575475640594) rotate(26.56505117707799 163.5 43)"><path d="M126.75 1.41 C143.32 -0.16, 164.78 0.25, 183.26 0.78 C201.75 1.31, 221.07 2.61, 237.66 4.61 C254.25 6.61, 270.12 9.23, 282.81 12.78 C295.51 16.33, 306.39 21.17, 313.85 25.92 C321.3 30.66, 326.42 36.32, 327.55 41.26 C328.68 46.21, 326.11 50.94, 320.63 55.58 C315.15 60.21, 305.81 65.27, 294.68 69.06 C283.55 72.84, 269.42 75.77, 253.85 78.28 C238.28 80.79, 219.54 82.74, 201.27 84.12 C183 85.5, 162.74 87.16, 144.22 86.59 C125.7 86.02, 106.91 82.93, 90.15 80.68 C73.39 78.42, 56.61 76.55, 43.66 73.06 C30.71 69.58, 19.65 64.49, 12.45 59.77 C5.25 55.05, 1.51 49.48, 0.48 44.76 C-0.55 40.05, 0.93 36.05, 6.26 31.48 C11.6 26.9, 21.05 21.37, 32.49 17.33 C43.93 13.29, 57.86 9.84, 74.88 7.23 C91.91 4.61, 123.32 2.62, 134.64 1.63 C145.95 0.63, 142.24 0.69, 142.78 1.27 M237.62 4.31 C254.41 5.38, 271.1 8.6, 283.83 12.43 C296.56 16.26, 306.62 22.75, 314.02 27.28 C321.42 31.81, 327.25 34.97, 328.23 39.61 C329.21 44.25, 325.67 50, 319.9 55.13 C314.13 60.26, 305.09 66.22, 293.63 70.39 C282.17 74.57, 266.83 77.51, 251.14 80.17 C235.45 82.83, 217.58 85.67, 199.47 86.34 C181.36 87, 160.96 85.21, 142.48 84.17 C124 83.14, 105.32 82.16, 88.6 80.13 C71.88 78.1, 55.08 75.27, 42.17 72.01 C29.25 68.75, 17.9 65.15, 11.14 60.57 C4.37 56, 2.13 49.79, 1.56 44.56 C0.98 39.34, 2.3 33.61, 7.68 29.22 C13.07 24.84, 22.44 21.91, 33.87 18.24 C45.3 14.56, 60.7 10.3, 76.27 7.19 C91.84 4.07, 109.21 0.71, 127.28 -0.46 C145.36 -1.63, 166.16 -0.65, 184.73 0.16 C203.31 0.97, 229.95 3.69, 238.73 4.42 C247.52 5.15, 238.93 3.85, 237.44 4.53" stroke="#1e1e1e" stroke-width="0.5" fill="none"></path></g><g stroke-linecap="round"><g transform="translate(196 129.49575475640594) rotate(0 -28 105)"><path d="M-0.76 -1 C-10.04 33.7, -46.64 173.48, -55.85 208.84" stroke="#1e1e1e" stroke-width="1" fill="none" stroke-dasharray="1.5 6.5"></path></g></g><mask></mask><g stroke-linecap="round"><g transform="translate(173 216.49575475640594) rotate(0 43 -89)"><path d="M-0.47 0.49 C14.08 -29.46, 71.87 -149.09, 86.36 -178.64" stroke="#1e1e1e" stroke-width="1" fill="none" stroke-dasharray="1.5 6.5"></path></g><g transform="translate(173 216.49575475640594) rotate(0 43 -89)"><path d="M83.78 -153.77 C84.95 -158.73, 83.65 -164.14, 86.36 -178.64" stroke="#1e1e1e" stroke-width="1" fill="none" stroke-dasharray="1.5 4.5"></path></g><g transform="translate(173 216.49575475640594) rotate(0 43 -89)"><path d="M68.4 -161.25 C73.08 -164.47, 75.22 -168.21, 86.36 -178.64" stroke="#1e1e1e" stroke-width="1" fill="none" stroke-dasharray="1.5 4.5"></path></g></g><mask></mask><g stroke-linecap="round"><g transform="translate(173 220.49575475640594) rotate(0 -3 -105)"><path d="M-0.09 -1 C-1.25 -35.9, -5.6 -175.66, -6.61 -210.5" stroke="#f08c00" stroke-width="1" fill="none" stroke-dasharray="1.5 6.5"></path></g><g transform="translate(173 220.49575475640594) rotate(0 -3 -105)"><path d="M2.65 -187.27 C-1.83 -195.89, -4.02 -202.75, -6.61 -210.5" stroke="#f08c00" stroke-width="1" fill="none" stroke-dasharray="1.5 4.5"></path></g><g transform="translate(173 220.49575475640594) rotate(0 -3 -105)"><path d="M-14.45 -186.76 C-13.33 -195.52, -9.94 -202.56, -6.61 -210.5" stroke="#f08c00" stroke-width="1" fill="none" stroke-dasharray="1.5 4.5"></path></g></g><mask></mask></svg>